<?xml version="1.0" encoding="UTF-8" standalone="no"?>
<!-- Created with Inkscape (http://www.inkscape.org/) -->

<svg
   xmlns:dc="http://purl.org/dc/elements/1.1/"
   xmlns:cc="http://creativecommons.org/ns#"
   xmlns:rdf="http://www.w3.org/1999/02/22-rdf-syntax-ns#"
   xmlns:svg="http://www.w3.org/2000/svg"
   xmlns="http://www.w3.org/2000/svg"
   xmlns:xlink="http://www.w3.org/1999/xlink"
   xmlns:sodipodi="http://sodipodi.sourceforge.net/DTD/sodipodi-0.dtd"
   xmlns:inkscape="http://www.inkscape.org/namespaces/inkscape"
   version="1.2"
   width="343pt"
   height="340pt"
   id="svg3617"
   inkscape:version="0.47 r22583"
   sodipodi:docname="daisy_architecture.inkscape.svg"
   inkscape:export-filename="/home/giacomo/Projects/Epic.NET/Documentation/resources/images/daisy_architecture.png"
   inkscape:export-xdpi="114.17"
   inkscape:export-ydpi="114.17">
  <metadata
     id="metadata2956">
    <rdf:RDF>
      <cc:Work
         rdf:about="">
        <dc:format>image/svg+xml</dc:format>
        <dc:type
           rdf:resource="http://purl.org/dc/dcmitype/StillImage" />
        <dc:title />
      </cc:Work>
    </rdf:RDF>
  </metadata>
  <sodipodi:namedview
     pagecolor="#ffffff"
     bordercolor="#666666"
     borderopacity="1"
     objecttolerance="10"
     gridtolerance="10"
     guidetolerance="10"
     inkscape:pageopacity="0"
     inkscape:pageshadow="2"
     inkscape:window-width="1920"
     inkscape:window-height="1005"
     id="namedview2954"
     showgrid="false"
     inkscape:zoom="4.4423528"
     inkscape:cx="192.20566"
     inkscape:cy="305.82963"
     inkscape:window-x="0"
     inkscape:window-y="25"
     inkscape:window-maximized="1"
     inkscape:current-layer="layer1" />
  <defs
     id="defs3619">
    <inkscape:perspective
       sodipodi:type="inkscape:persp3d"
       inkscape:vp_x="0 : 212.5 : 1"
       inkscape:vp_y="0 : 1000 : 0"
       inkscape:vp_z="428.75 : 212.5 : 1"
       inkscape:persp3d-origin="214.375 : 141.66667 : 1"
       id="perspective2958" />
    <linearGradient
       x1="-2576.01"
       y1="-775.77368"
       x2="-2461.2764"
       y2="-659.24725"
       id="linearGradient5881"
       xlink:href="#linearGradient5243"
       gradientUnits="userSpaceOnUse" />
    <linearGradient
       id="linearGradient5243">
      <stop
         id="stop5245"
         style="stop-color:#ffcc00;stop-opacity:1"
         offset="0" />
      <stop
         id="stop5247"
         style="stop-color:#ffcc00;stop-opacity:0"
         offset="1" />
    </linearGradient>
    <linearGradient
       x1="-2576.01"
       y1="-775.77368"
       x2="-2461.2764"
       y2="-659.24725"
       id="linearGradient5857"
       xlink:href="#linearGradient5243"
       gradientUnits="userSpaceOnUse" />
    <linearGradient
       id="linearGradient3494">
      <stop
         id="stop3496"
         style="stop-color:#ffcc00;stop-opacity:1"
         offset="0" />
      <stop
         id="stop3498"
         style="stop-color:#ffcc00;stop-opacity:0"
         offset="1" />
    </linearGradient>
    <linearGradient
       x1="-2576.01"
       y1="-775.77368"
       x2="-2461.2764"
       y2="-659.24725"
       id="linearGradient5859"
       xlink:href="#linearGradient5243"
       gradientUnits="userSpaceOnUse" />
    <linearGradient
       id="linearGradient3501">
      <stop
         id="stop3503"
         style="stop-color:#ffcc00;stop-opacity:1"
         offset="0" />
      <stop
         id="stop3505"
         style="stop-color:#ffcc00;stop-opacity:0"
         offset="1" />
    </linearGradient>
    <linearGradient
       x1="-2576.01"
       y1="-775.77368"
       x2="-2461.2764"
       y2="-659.24725"
       id="linearGradient5861"
       xlink:href="#linearGradient5243"
       gradientUnits="userSpaceOnUse" />
    <linearGradient
       id="linearGradient3508">
      <stop
         id="stop3510"
         style="stop-color:#ffcc00;stop-opacity:1"
         offset="0" />
      <stop
         id="stop3512"
         style="stop-color:#ffcc00;stop-opacity:0"
         offset="1" />
    </linearGradient>
    <linearGradient
       x1="-2576.01"
       y1="-775.77368"
       x2="-2461.2764"
       y2="-659.24725"
       id="linearGradient5863"
       xlink:href="#linearGradient5243"
       gradientUnits="userSpaceOnUse" />
    <linearGradient
       id="linearGradient3515">
      <stop
         id="stop3517"
         style="stop-color:#ffcc00;stop-opacity:1"
         offset="0" />
      <stop
         id="stop3519"
         style="stop-color:#ffcc00;stop-opacity:0"
         offset="1" />
    </linearGradient>
    <linearGradient
       x1="-2576.01"
       y1="-775.77368"
       x2="-2461.2764"
       y2="-659.24725"
       id="linearGradient5865"
       xlink:href="#linearGradient5243"
       gradientUnits="userSpaceOnUse" />
    <linearGradient
       id="linearGradient3522">
      <stop
         id="stop3524"
         style="stop-color:#ffcc00;stop-opacity:1"
         offset="0" />
      <stop
         id="stop3526"
         style="stop-color:#ffcc00;stop-opacity:0"
         offset="1" />
    </linearGradient>
    <linearGradient
       x1="-2576.01"
       y1="-775.77368"
       x2="-2461.2764"
       y2="-659.24725"
       id="linearGradient5867"
       xlink:href="#linearGradient5243"
       gradientUnits="userSpaceOnUse" />
    <linearGradient
       id="linearGradient3529">
      <stop
         id="stop3531"
         style="stop-color:#ffcc00;stop-opacity:1"
         offset="0" />
      <stop
         id="stop3533"
         style="stop-color:#ffcc00;stop-opacity:0"
         offset="1" />
    </linearGradient>
    <linearGradient
       x1="-2576.01"
       y1="-775.77368"
       x2="-2461.2764"
       y2="-659.24725"
       id="linearGradient5869"
       xlink:href="#linearGradient5243"
       gradientUnits="userSpaceOnUse" />
    <linearGradient
       id="linearGradient3536">
      <stop
         id="stop3538"
         style="stop-color:#ffcc00;stop-opacity:1"
         offset="0" />
      <stop
         id="stop3540"
         style="stop-color:#ffcc00;stop-opacity:0"
         offset="1" />
    </linearGradient>
    <linearGradient
       x1="-2576.01"
       y1="-775.77368"
       x2="-2461.2764"
       y2="-659.24725"
       id="linearGradient5871"
       xlink:href="#linearGradient5243"
       gradientUnits="userSpaceOnUse" />
    <linearGradient
       id="linearGradient3543">
      <stop
         id="stop3545"
         style="stop-color:#ffcc00;stop-opacity:1"
         offset="0" />
      <stop
         id="stop3547"
         style="stop-color:#ffcc00;stop-opacity:0"
         offset="1" />
    </linearGradient>
    <linearGradient
       x1="-2576.01"
       y1="-775.77368"
       x2="-2461.2764"
       y2="-659.24725"
       id="linearGradient5873"
       xlink:href="#linearGradient5243"
       gradientUnits="userSpaceOnUse" />
    <linearGradient
       id="linearGradient3550">
      <stop
         id="stop3552"
         style="stop-color:#ffcc00;stop-opacity:1"
         offset="0" />
      <stop
         id="stop3554"
         style="stop-color:#ffcc00;stop-opacity:0"
         offset="1" />
    </linearGradient>
    <linearGradient
       x1="-2576.01"
       y1="-775.77368"
       x2="-2461.2764"
       y2="-659.24725"
       id="linearGradient5875"
       xlink:href="#linearGradient5243"
       gradientUnits="userSpaceOnUse" />
    <linearGradient
       id="linearGradient3557">
      <stop
         id="stop3559"
         style="stop-color:#ffcc00;stop-opacity:1"
         offset="0" />
      <stop
         id="stop3561"
         style="stop-color:#ffcc00;stop-opacity:0"
         offset="1" />
    </linearGradient>
    <linearGradient
       x1="-2576.01"
       y1="-775.77368"
       x2="-2461.2764"
       y2="-659.24725"
       id="linearGradient5877"
       xlink:href="#linearGradient5243"
       gradientUnits="userSpaceOnUse" />
    <linearGradient
       id="linearGradient3564">
      <stop
         id="stop3566"
         style="stop-color:#ffcc00;stop-opacity:1"
         offset="0" />
      <stop
         id="stop3568"
         style="stop-color:#ffcc00;stop-opacity:0"
         offset="1" />
    </linearGradient>
    <linearGradient
       x1="-2576.01"
       y1="-775.77368"
       x2="-2461.2764"
       y2="-659.24725"
       id="linearGradient5879"
       xlink:href="#linearGradient5243"
       gradientUnits="userSpaceOnUse" />
    <linearGradient
       id="linearGradient3571">
      <stop
         id="stop3573"
         style="stop-color:#ffcc00;stop-opacity:1"
         offset="0" />
      <stop
         id="stop3575"
         style="stop-color:#ffcc00;stop-opacity:0"
         offset="1" />
    </linearGradient>
    <filter
       color-interpolation-filters="sRGB"
       id="filter5359">
      <feGaussianBlur
         stdDeviation="10.120024"
         id="feGaussianBlur5361" />
    </filter>
    <linearGradient
       x1="-2362.8818"
       y1="-504.30035"
       x2="-2461.7578"
       y2="-230.49001"
       id="linearGradient5883"
       xlink:href="#linearGradient4677"
       gradientUnits="userSpaceOnUse"
       gradientTransform="translate(-1262.6483,859.10368)" />
    <linearGradient
       id="linearGradient4677">
      <stop
         id="stop4679"
         style="stop-color:#ffffff;stop-opacity:1"
         offset="0" />
      <stop
         id="stop4681"
         style="stop-color:#ffffff;stop-opacity:0"
         offset="1" />
    </linearGradient>
    <linearGradient
       x1="-2576.01"
       y1="-775.77368"
       x2="-2461.2764"
       y2="-659.24725"
       id="linearGradient3848"
       xlink:href="#linearGradient5243"
       gradientUnits="userSpaceOnUse" />
    <linearGradient
       x1="-2576.01"
       y1="-775.77368"
       x2="-2461.2764"
       y2="-659.24725"
       id="linearGradient3850"
       xlink:href="#linearGradient5243"
       gradientUnits="userSpaceOnUse" />
    <linearGradient
       x1="-2576.01"
       y1="-775.77368"
       x2="-2461.2764"
       y2="-659.24725"
       id="linearGradient3852"
       xlink:href="#linearGradient5243"
       gradientUnits="userSpaceOnUse" />
    <linearGradient
       x1="-2576.01"
       y1="-775.77368"
       x2="-2461.2764"
       y2="-659.24725"
       id="linearGradient3854"
       xlink:href="#linearGradient5243"
       gradientUnits="userSpaceOnUse" />
    <linearGradient
       x1="-2576.01"
       y1="-775.77368"
       x2="-2461.2764"
       y2="-659.24725"
       id="linearGradient3856"
       xlink:href="#linearGradient5243"
       gradientUnits="userSpaceOnUse" />
    <linearGradient
       x1="-2576.01"
       y1="-775.77368"
       x2="-2461.2764"
       y2="-659.24725"
       id="linearGradient3858"
       xlink:href="#linearGradient5243"
       gradientUnits="userSpaceOnUse" />
    <linearGradient
       x1="-2576.01"
       y1="-775.77368"
       x2="-2461.2764"
       y2="-659.24725"
       id="linearGradient3860"
       xlink:href="#linearGradient5243"
       gradientUnits="userSpaceOnUse" />
    <linearGradient
       x1="-2576.01"
       y1="-775.77368"
       x2="-2461.2764"
       y2="-659.24725"
       id="linearGradient3862"
       xlink:href="#linearGradient5243"
       gradientUnits="userSpaceOnUse" />
    <linearGradient
       x1="-2576.01"
       y1="-775.77368"
       x2="-2461.2764"
       y2="-659.24725"
       id="linearGradient3864"
       xlink:href="#linearGradient5243"
       gradientUnits="userSpaceOnUse" />
    <linearGradient
       x1="-2576.01"
       y1="-775.77368"
       x2="-2461.2764"
       y2="-659.24725"
       id="linearGradient3866"
       xlink:href="#linearGradient5243"
       gradientUnits="userSpaceOnUse" />
    <linearGradient
       x1="-2576.01"
       y1="-775.77368"
       x2="-2461.2764"
       y2="-659.24725"
       id="linearGradient3868"
       xlink:href="#linearGradient5243"
       gradientUnits="userSpaceOnUse" />
    <linearGradient
       x1="-2576.01"
       y1="-775.77368"
       x2="-2461.2764"
       y2="-659.24725"
       id="linearGradient3870"
       xlink:href="#linearGradient5243"
       gradientUnits="userSpaceOnUse" />
    <linearGradient
       x1="-2576.01"
       y1="-775.77368"
       x2="-2461.2764"
       y2="-659.24725"
       id="linearGradient3872"
       xlink:href="#linearGradient5243"
       gradientUnits="userSpaceOnUse" />
    <linearGradient
       x1="-2362.8818"
       y1="-504.30035"
       x2="-2461.7578"
       y2="-230.49001"
       id="linearGradient3874"
       xlink:href="#linearGradient4677"
       gradientUnits="userSpaceOnUse"
       gradientTransform="translate(-1262.6483,859.10368)" />
  </defs>
  <g
     id="layer1">
    <g
       transform="matrix(0.48308439,0,0,0.48308439,1462.4083,467.60326)"
       id="g5083"
       style="fill:#806600;fill-opacity:1">
      <path
         d="m -2497.2518,-775.57544 c 0,75.61064 -27.8096,136.90518 -62.1144,136.90518 -34.3048,0 -62.1144,-61.29454 -62.1144,-136.90518 0,-75.61064 27.8096,-136.90518 62.1144,-136.90518 34.3048,0 62.1144,61.29454 62.1144,136.90518 z"
         transform="translate(-20.282248,514.66204)"
         id="path5085"
         style="fill:#806600;stroke:none" />
      <path
         d="m -2497.2518,-775.57544 c 0,75.61064 -27.8096,136.90518 -62.1144,136.90518 -34.3048,0 -62.1144,-61.29454 -62.1144,-136.90518 0,-75.61064 27.8096,-136.90518 62.1144,-136.90518 34.3048,0 62.1144,61.29454 62.1144,136.90518 z"
         transform="translate(-20.282248,2.5352762)"
         id="path5087"
         style="fill:#806600;stroke:none" />
      <path
         d="m -2497.2518,-775.57544 c 0,75.61064 -27.8096,136.90518 -62.1144,136.90518 -34.3048,0 -62.1144,-61.29454 -62.1144,-136.90518 0,-75.61064 27.8096,-136.90518 62.1144,-136.90518 34.3048,0 62.1144,61.29454 62.1144,136.90518 z"
         transform="matrix(0.8660254,0.5,-0.5,0.8660254,-878.99171,1656.1318)"
         id="path5089"
         style="fill:#806600;stroke:none" />
      <path
         d="m -2497.2518,-775.57544 c 0,75.61064 -27.8096,136.90518 -62.1144,136.90518 -34.3048,0 -62.1144,-61.29454 -62.1144,-136.90518 0,-75.61064 27.8096,-136.90518 62.1144,-136.90518 34.3048,0 62.1144,61.29454 62.1144,136.90518 z"
         transform="matrix(0.8660254,0.5,-0.5,0.8660254,-622.92833,1212.617)"
         id="path5091"
         style="fill:#806600;stroke:none" />
      <path
         d="m -2497.2518,-775.57544 c 0,75.61064 -27.8096,136.90518 -62.1144,136.90518 -34.3048,0 -62.1144,-61.29454 -62.1144,-136.90518 0,-75.61064 27.8096,-136.90518 62.1144,-136.90518 34.3048,0 62.1144,61.29454 62.1144,136.90518 z"
         transform="matrix(0.5,0.8660254,-0.8660254,0.5,-2193.3908,2215.3188)"
         id="path5093"
         style="fill:#806600;stroke:none" />
      <path
         d="m -2497.2518,-775.57544 c 0,75.61064 -27.8096,136.90518 -62.1144,136.90518 -34.3048,0 -62.1144,-61.29454 -62.1144,-136.90518 0,-75.61064 27.8096,-136.90518 62.1144,-136.90518 34.3048,0 62.1144,61.29454 62.1144,136.90518 z"
         transform="matrix(0.5,0.8660254,-0.8660254,0.5,-1749.876,1959.2554)"
         id="path5095"
         style="fill:#806600;stroke:none" />
      <path
         d="m -2497.2518,-775.57544 c 0,75.61064 -27.8096,136.90518 -62.1144,136.90518 -34.3048,0 -62.1144,-61.29454 -62.1144,-136.90518 0,-75.61064 27.8096,-136.90518 62.1144,-136.90518 34.3048,0 62.1144,61.29454 62.1144,136.90518 z"
         transform="matrix(0,1,-1,0,-3611.2873,2042.3894)"
         id="path5097"
         style="fill:#806600;stroke:none" />
      <path
         d="m -2497.2518,-775.57544 c 0,75.61064 -27.8096,136.90518 -62.1144,136.90518 -34.3048,0 -62.1144,-61.29454 -62.1144,-136.90518 0,-75.61064 27.8096,-136.90518 62.1144,-136.90518 34.3048,0 62.1144,61.29454 62.1144,136.90518 z"
         transform="matrix(0,1,-1,0,-3099.1605,2042.3894)"
         id="path5099"
         style="fill:#806600;stroke:none" />
      <path
         d="m -2497.2518,-775.57544 c 0,75.61064 -27.8096,136.90518 -62.1144,136.90518 -34.3048,0 -62.1144,-61.29454 -62.1144,-136.90518 0,-75.61064 27.8096,-136.90518 62.1144,-136.90518 34.3048,0 62.1144,61.29454 62.1144,136.90518 z"
         transform="matrix(-0.5,0.8660254,-0.8660254,-0.5,-4752.757,1183.6799)"
         id="path5101"
         style="fill:#806600;stroke:none" />
      <path
         d="m -2497.2518,-775.57544 c 0,75.61064 -27.8096,136.90518 -62.1144,136.90518 -34.3048,0 -62.1144,-61.29454 -62.1144,-136.90518 0,-75.61064 27.8096,-136.90518 62.1144,-136.90518 34.3048,0 62.1144,61.29454 62.1144,136.90518 z"
         transform="matrix(-0.5,0.8660254,-0.8660254,-0.5,-4309.2422,1439.7433)"
         id="path5103"
         style="fill:#806600;stroke:none" />
      <path
         d="m -2497.2518,-775.57544 c 0,75.61064 -27.8096,136.90518 -62.1144,136.90518 -34.3048,0 -62.1144,-61.29454 -62.1144,-136.90518 0,-75.61064 27.8096,-136.90518 62.1144,-136.90518 34.3048,0 62.1144,61.29454 62.1144,136.90518 z"
         transform="matrix(-0.8660254,0.5,-0.5,-0.8660254,-5311.944,-130.71917)"
         id="path5105"
         style="fill:#806600;stroke:none" />
      <path
         d="m -2497.2518,-775.57544 c 0,75.61064 -27.8096,136.90518 -62.1144,136.90518 -34.3048,0 -62.1144,-61.29454 -62.1144,-136.90518 0,-75.61064 27.8096,-136.90518 62.1144,-136.90518 34.3048,0 62.1144,61.29454 62.1144,136.90518 z"
         transform="matrix(-0.8660254,0.5,-0.5,-0.8660254,-5055.8806,312.79564)"
         id="path5107"
         style="fill:#806600;stroke:none" />
    </g>
    <g
       transform="matrix(0.50085672,0,0,0.50085672,1503.2843,472.68129)"
       id="g5109"
       style="fill:#ffffff;fill-opacity:1;stroke:#000000">
      <path
         d="m -2497.2518,-775.57544 c 0,75.61064 -27.8096,136.90518 -62.1144,136.90518 -34.3048,0 -62.1144,-61.29454 -62.1144,-136.90518 0,-75.61064 27.8096,-136.90518 62.1144,-136.90518 34.3048,0 62.1144,61.29454 62.1144,136.90518 z"
         transform="translate(-20.282248,514.66204)"
         id="path5111"
         style="fill:#ffffff;stroke:#000000" />
      <path
         d="m -2497.2518,-775.57544 c 0,75.61064 -27.8096,136.90518 -62.1144,136.90518 -34.3048,0 -62.1144,-61.29454 -62.1144,-136.90518 0,-75.61064 27.8096,-136.90518 62.1144,-136.90518 34.3048,0 62.1144,61.29454 62.1144,136.90518 z"
         transform="translate(-20.282248,2.5352762)"
         id="path5113"
         style="fill:#ffffff;stroke:#000000" />
      <path
         d="m -2497.2518,-775.57544 c 0,75.61064 -27.8096,136.90518 -62.1144,136.90518 -34.3048,0 -62.1144,-61.29454 -62.1144,-136.90518 0,-75.61064 27.8096,-136.90518 62.1144,-136.90518 34.3048,0 62.1144,61.29454 62.1144,136.90518 z"
         transform="matrix(0.8660254,0.5,-0.5,0.8660254,-878.99171,1656.1318)"
         id="path5115"
         style="fill:#ffffff;stroke:#000000" />
      <path
         d="m -2497.2518,-775.57544 c 0,75.61064 -27.8096,136.90518 -62.1144,136.90518 -34.3048,0 -62.1144,-61.29454 -62.1144,-136.90518 0,-75.61064 27.8096,-136.90518 62.1144,-136.90518 34.3048,0 62.1144,61.29454 62.1144,136.90518 z"
         transform="matrix(0.8660254,0.5,-0.5,0.8660254,-622.92833,1212.617)"
         id="path5117"
         style="fill:#ffffff;stroke:#000000" />
      <path
         d="m -2497.2518,-775.57544 c 0,75.61064 -27.8096,136.90518 -62.1144,136.90518 -34.3048,0 -62.1144,-61.29454 -62.1144,-136.90518 0,-75.61064 27.8096,-136.90518 62.1144,-136.90518 34.3048,0 62.1144,61.29454 62.1144,136.90518 z"
         transform="matrix(0.5,0.8660254,-0.8660254,0.5,-2193.3908,2215.3188)"
         id="path5119"
         style="fill:#ffffff;stroke:#000000" />
      <path
         d="m -2497.2518,-775.57544 c 0,75.61064 -27.8096,136.90518 -62.1144,136.90518 -34.3048,0 -62.1144,-61.29454 -62.1144,-136.90518 0,-75.61064 27.8096,-136.90518 62.1144,-136.90518 34.3048,0 62.1144,61.29454 62.1144,136.90518 z"
         transform="matrix(0.5,0.8660254,-0.8660254,0.5,-1749.876,1959.2554)"
         id="path5121"
         style="fill:#ffffff;stroke:#000000" />
      <path
         d="m -2497.2518,-775.57544 c 0,75.61064 -27.8096,136.90518 -62.1144,136.90518 -34.3048,0 -62.1144,-61.29454 -62.1144,-136.90518 0,-75.61064 27.8096,-136.90518 62.1144,-136.90518 34.3048,0 62.1144,61.29454 62.1144,136.90518 z"
         transform="matrix(0,1,-1,0,-3611.2873,2042.3894)"
         id="path5123"
         style="fill:#ffffff;stroke:#000000" />
      <path
         d="m -2497.2518,-775.57544 c 0,75.61064 -27.8096,136.90518 -62.1144,136.90518 -34.3048,0 -62.1144,-61.29454 -62.1144,-136.90518 0,-75.61064 27.8096,-136.90518 62.1144,-136.90518 34.3048,0 62.1144,61.29454 62.1144,136.90518 z"
         transform="matrix(0,1,-1,0,-3099.1605,2042.3894)"
         id="path5125"
         style="fill:#ffffff;stroke:#000000" />
      <path
         d="m -2497.2518,-775.57544 c 0,75.61064 -27.8096,136.90518 -62.1144,136.90518 -34.3048,0 -62.1144,-61.29454 -62.1144,-136.90518 0,-75.61064 27.8096,-136.90518 62.1144,-136.90518 34.3048,0 62.1144,61.29454 62.1144,136.90518 z"
         transform="matrix(-0.5,0.8660254,-0.8660254,-0.5,-4752.757,1183.6799)"
         id="path5127"
         style="fill:#ffffff;stroke:#000000" />
      <path
         d="m -2497.2518,-775.57544 c 0,75.61064 -27.8096,136.90518 -62.1144,136.90518 -34.3048,0 -62.1144,-61.29454 -62.1144,-136.90518 0,-75.61064 27.8096,-136.90518 62.1144,-136.90518 34.3048,0 62.1144,61.29454 62.1144,136.90518 z"
         transform="matrix(-0.5,0.8660254,-0.8660254,-0.5,-4309.2422,1439.7433)"
         id="path5129"
         style="fill:#ffffff;stroke:#000000" />
      <path
         d="m -2497.2518,-775.57544 c 0,75.61064 -27.8096,136.90518 -62.1144,136.90518 -34.3048,0 -62.1144,-61.29454 -62.1144,-136.90518 0,-75.61064 27.8096,-136.90518 62.1144,-136.90518 34.3048,0 62.1144,61.29454 62.1144,136.90518 z"
         transform="matrix(-0.8660254,0.5,-0.5,-0.8660254,-5311.944,-130.71917)"
         id="path5131"
         style="fill:#ffffff;stroke:#000000" />
      <path
         d="m -2497.2518,-775.57544 c 0,75.61064 -27.8096,136.90518 -62.1144,136.90518 -34.3048,0 -62.1144,-61.29454 -62.1144,-136.90518 0,-75.61064 27.8096,-136.90518 62.1144,-136.90518 34.3048,0 62.1144,61.29454 62.1144,136.90518 z"
         transform="matrix(-0.8660254,0.5,-0.5,-0.8660254,-5055.8806,312.79564)"
         id="path5133"
         style="fill:#ffffff;stroke:#000000" />
    </g>
    <g
       transform="matrix(0.50085672,0,0,0.50085672,2068.6863,-58.434856)"
       id="g5325"
       style="fill:#000000;filter:url(#filter5359)">
      <path
         d="m -2431.3344,-516.97675 c 0,77.01084 -66.97,139.44046 -149.5816,139.44046 -82.6116,0 -149.5816,-62.42962 -149.5816,-139.44046 0,-77.01084 66.97,-139.44046 149.5816,-139.44046 82.6116,0 149.5816,62.42962 149.5816,139.44046 z"
         transform="matrix(-0.96592583,0.25881905,-0.25881905,-0.96592583,-6328.3654,713.57838)"
         id="path5327"
         style="fill:#000000;fill-opacity:1;stroke:none" />
      <path
         d="m -3696.7421,404.75991 c -13.4624,0.0402 -27.2224,1.82506 -40.9374,5.5 -22.1252,5.92842 -41.8502,16.19052 -58.375,29.5 -5.117,21.02597 -5.2065,43.31615 0.6874,65.3125 19.9319,74.38676 100.7659,117.35017 180.5626,95.96875 22.1201,-5.92707 41.8524,-16.16369 58.375,-29.46875 5.124,-21.03464 5.2091,-43.3371 -0.6876,-65.34375 -16.506,-61.60153 -74.7605,-101.66234 -139.625,-101.46875 z"
         id="path5329"
         style="fill:#000000;fill-opacity:1;stroke:none" />
    </g>
    <g
       transform="matrix(0.50085672,0,0,0.50085672,2066.6863,-60.434856)"
       id="g5255">
      <path
         d="m -2431.3344,-516.97675 c 0,77.01084 -66.97,139.44046 -149.5816,139.44046 -82.6116,0 -149.5816,-62.42962 -149.5816,-139.44046 0,-77.01084 66.97,-139.44046 149.5816,-139.44046 82.6116,0 149.5816,62.42962 149.5816,139.44046 z"
         transform="matrix(-0.96592583,0.25881905,-0.25881905,-0.96592583,-6328.3654,713.57838)"
         id="path5135"
         style="fill:#ffcc00;fill-opacity:1;stroke:none" />
      <path
         d="m -3696.7421,404.75991 c -13.4624,0.0402 -27.2224,1.82506 -40.9374,5.5 -22.1252,5.92842 -41.8502,16.19052 -58.375,29.5 -5.117,21.02597 -5.2065,43.31615 0.6874,65.3125 19.9319,74.38676 100.7659,117.35017 180.5626,95.96875 22.1201,-5.92707 41.8524,-16.16369 58.375,-29.46875 5.124,-21.03464 5.2091,-43.3371 -0.6876,-65.34375 -16.506,-61.60153 -74.7605,-101.66234 -139.625,-101.46875 z"
         id="path5137"
         style="fill:url(#linearGradient3874);fill-opacity:1;stroke:none" />
    </g>
    <text
       x="228.86032"
       y="209.07072"
       transform="scale(0.93274524,1.0721041)"
       id="text2920"
       xml:space="preserve"
       style="font-size:31.28374481px;font-style:normal;font-weight:normal;text-align:center;line-height:125%;writing-mode:lr-tb;text-anchor:middle;fill:#000000;fill-opacity:1;stroke:none;font-family:Bitstream Vera Sans"
       sodipodi:linespacing="125%"><tspan
         x="228.86032"
         y="209.07072"
         id="tspan2922"
         style="text-align:center;line-height:125%;writing-mode:lr-tb;text-anchor:middle;fill:#d40000;stroke:#800000;stroke-opacity:1">Domains</tspan></text>
    <text
       x="286.25"
       y="152.5"
       id="text2936"
       xml:space="preserve"
       style="font-size:40px;font-style:normal;font-weight:normal;fill:#000000;fill-opacity:1;stroke:none;font-family:Bitstream Vera Sans"><tspan
         x="286.25"
         y="152.5"
         id="tspan2938" /></text>
    <text
       x="202.5"
       y="60"
       id="text3800"
       xml:space="preserve"
       style="font-size:40px;font-style:normal;font-weight:normal;fill:#000000;fill-opacity:1;stroke:none;font-family:Bitstream Vera Sans"><tspan
         x="202.5"
         y="60"
         id="tspan3802" /></text>
    <text
       x="198.75"
       y="104.5"
       id="text3847"
       xml:space="preserve"
       style="font-size:40px;font-style:normal;font-weight:normal;fill:#2c89a0;fill-opacity:1;stroke:#216778;font-family:Bitstream Vera Sans"><tspan
         x="198.75"
         y="104.5"
         id="tspan3849"
         style="fill:#2c89a0;stroke:#216778">A</tspan></text>
    <text
       x="279.05188"
       y="-33.349991"
       transform="matrix(0.8613842,0.50795399,-0.50795399,0.8613842,0,0)"
       id="text3851"
       xml:space="preserve"
       style="font-size:40px;font-style:normal;font-weight:normal;fill:#2c89a0;fill-opacity:1;stroke:#216778;stroke-width:1;font-family:Bitstream Vera Sans"><tspan
         x="279.05188"
         y="-33.349991"
         id="tspan3853"
         style="stroke-width:1;fill:#2c89a0;stroke:#216778">n</tspan></text>
    <text
       x="296.37302"
       y="-155.26819"
       transform="matrix(0.58722529,0.80942353,-0.80942353,0.58722529,0,0)"
       id="text3855"
       xml:space="preserve"
       style="font-size:40px;font-style:normal;font-weight:normal;fill:#2c89a0;fill-opacity:1;stroke:#216778;stroke-width:1;font-family:Bitstream Vera Sans"><tspan
         x="296.37302"
         y="-155.26819"
         id="tspan3857"
         style="stroke-width:1;fill:#2c89a0;stroke:#216778">y</tspan></text>
    <text
       x="200.11658"
       y="-326.17676"
       transform="matrix(-0.01404925,0.9999013,-0.9999013,-0.01404925,0,0)"
       id="text3859"
       xml:space="preserve"
       style="font-size:40px;font-style:normal;font-weight:normal;fill:#000000;fill-opacity:1;stroke:#445500;stroke-width:1;font-family:Bitstream Vera Sans"><tspan
         x="200.11658"
         y="-326.17676"
         id="tspan3861"
         style="stroke-width:1">t</tspan></text>
    <text
       x="68.328087"
       y="-402.52536"
       transform="matrix(-0.49947845,0.86632631,-0.86632631,-0.49947845,0,0)"
       id="text3863"
       xml:space="preserve"
       style="font-size:40px;font-style:normal;font-weight:normal;fill:#000000;fill-opacity:1;stroke:#445500;stroke-width:1;font-family:Bitstream Vera Sans"><tspan
         x="68.328087"
         y="-402.52536"
         id="tspan3865"
         style="stroke-width:1">h</tspan></text>
    <text
       x="-89.171745"
       y="-403.29074"
       transform="matrix(-0.87371465,0.48643881,-0.48643881,-0.87371465,0,0)"
       id="text3867"
       xml:space="preserve"
       style="font-size:40px;font-style:normal;font-weight:normal;fill:#000000;fill-opacity:1;stroke:#445500;stroke-width:1;font-family:Bitstream Vera Sans"><tspan
         x="-89.171745"
         y="-403.29074"
         id="tspan3869"
         style="stroke-width:1">i</tspan></text>
    <text
       x="-229.73822"
       y="-323.86005"
       transform="matrix(-0.9998489,-0.01738338,0.01738338,-0.9998489,0,0)"
       id="text3871"
       xml:space="preserve"
       style="font-size:40px;font-style:normal;font-weight:normal;fill:#000000;fill-opacity:1;stroke:#445500;stroke-width:1;font-family:Bitstream Vera Sans"><tspan
         x="-229.73822"
         y="-323.86005"
         id="tspan3873"
         style="stroke-width:1">n</tspan></text>
    <text
       x="-314.77408"
       y="-173.1375"
       transform="matrix(-0.83131286,-0.55580476,0.55580476,-0.83131286,0,0)"
       id="text3875"
       xml:space="preserve"
       style="font-size:40px;font-style:normal;font-weight:normal;fill:#000000;fill-opacity:1;stroke:#445500;stroke-width:1;font-family:Bitstream Vera Sans"><tspan
         x="-314.77408"
         y="-173.1375"
         id="tspan3877"
         style="stroke-width:1">g</tspan></text>
    <text
       x="-303.50906"
       y="-22.291971"
       transform="matrix(-0.45864423,-0.88861998,0.88861998,-0.45864423,0,0)"
       id="text3879"
       xml:space="preserve"
       style="font-size:40px;font-style:normal;font-weight:normal;fill:#164450;fill-opacity:1;stroke:none;font-family:Bitstream Vera Sans"><tspan
         x="-303.50906"
         y="-22.291971"
         id="tspan3881">e</tspan></text>
    <text
       x="-216.19225"
       y="104.5751"
       transform="matrix(0.02028478,-0.99979424,0.99979424,0.02028478,0,0)"
       id="text3883"
       xml:space="preserve"
       style="font-size:40px;font-style:normal;font-weight:normal;fill:#164450;fill-opacity:1;stroke:none;font-family:Bitstream Vera Sans"><tspan
         x="-216.19225"
         y="104.5751"
         id="tspan3885">l</tspan></text>
    <text
       x="-88.910385"
       y="179.37914"
       transform="matrix(0.49820347,-0.86706015,0.86706015,0.49820347,0,0)"
       id="text3887"
       xml:space="preserve"
       style="font-size:40px;font-style:normal;font-weight:normal;fill:#164450;fill-opacity:1;stroke:none;font-family:Bitstream Vera Sans"><tspan
         x="-88.910385"
         y="179.37914"
         id="tspan3889">s</tspan></text>
    <text
       x="60.646675"
       y="182.8976"
       transform="matrix(0.85351504,-0.52106821,0.52106821,0.85351504,0,0)"
       id="text3891"
       xml:space="preserve"
       style="font-size:40px;font-style:normal;font-weight:normal;fill:#164450;fill-opacity:1;stroke:none;font-family:Bitstream Vera Sans"><tspan
         x="60.646675"
         y="182.8976"
         id="tspan3893">e</tspan></text>
  </g>
</svg>
